<svg width="191" height="294" viewBox="0 0 191 294" fill="none" xmlns="http://www.w3.org/2000/svg">
<path d="M0 0H191V293.457H0V0Z" fill="#D9D9D9"/>
<path d="M84.5175 101.243H107.438V114.937H84.5175V101.243Z" fill="#FFA500"/>
<path fill-rule="evenodd" clip-rule="evenodd" d="M78.7875 98.3081C78.7875 97.5298 79.0894 96.7834 79.6266 96.233C80.1639 95.6827 80.8927 95.3735 81.6525 95.3735H110.303C111.062 95.3735 111.791 95.6827 112.328 96.233C112.866 96.7834 113.168 97.5298 113.168 98.3081V117.872C113.168 118.65 112.866 119.397 112.328 119.947C111.791 120.497 111.062 120.806 110.303 120.806H99.7975V123.741H106.005C106.385 123.741 106.749 123.896 107.018 124.171C107.287 124.446 107.438 124.819 107.438 125.208C107.438 125.597 107.287 125.971 107.018 126.246C106.749 126.521 106.385 126.676 106.005 126.676H85.95C85.5701 126.676 85.2057 126.521 84.9371 126.246C84.6684 125.971 84.5175 125.597 84.5175 125.208C84.5175 124.819 84.6684 124.446 84.9371 124.171C85.2057 123.896 85.5701 123.741 85.95 123.741H92.1575V120.806H81.6525C80.8927 120.806 80.1639 120.497 79.6266 119.947C79.0894 119.397 78.7875 118.65 78.7875 117.872V98.3081ZM110.303 98.3081H81.6525V117.872H110.303V98.3081Z" fill="#FFA500"/>
<path d="M82.312 155.48H92.992V157.208H82.312V155.48ZM71.848 152.96H81.472V154.592H71.848V152.96ZM71.656 162.944H81.688V164.576H71.656V162.944ZM71.08 157.928H81.952V159.584H71.08V157.928ZM88.84 150.08H90.616V169.592C90.616 170.72 90.304 171.224 89.608 171.536C88.864 171.824 87.688 171.872 85.672 171.872C85.576 171.392 85.264 170.6 85 170.12C86.512 170.168 87.832 170.144 88.24 170.144C88.696 170.12 88.84 170 88.84 169.592V150.08ZM83.248 159.968L84.784 159.416C85.648 161.144 86.728 163.496 87.256 164.84L85.576 165.536C85.12 164.144 84.112 161.744 83.248 159.968ZM75.808 149.84H77.536V158.792H75.808V149.84ZM75.808 160.136H77.536V169.352H75.808V160.136ZM70.864 169.136C73.696 168.752 78.136 168.032 82.336 167.384L82.408 169.04C78.376 169.736 74.128 170.432 71.128 170.936L70.864 169.136ZM102.52 160.52H109.096V162.008H102.52V160.52ZM102.52 164.696H109.168V166.184H102.52V164.696ZM97.576 168.992H114.52V170.672H97.576V168.992ZM96.472 156.176H115.504V171.944H113.68V157.856H98.224V171.944H96.472V156.176ZM101.68 157.232H103.312V169.76H101.68V157.232ZM108.4 157.232H110.056V169.688H108.4V157.232ZM104.8 152.24L106.888 152.72C106.384 154.328 105.88 156.176 105.4 157.376L103.768 156.92C104.152 155.624 104.632 153.632 104.8 152.24ZM95.392 151.448H116.656V153.176H95.392V151.448Z" fill="#FB923C"/>
</svg>
